<?xml version="1.0" standalone="no"?>
<!DOCTYPE svg PUBLIC "-//W3C//DTD SVG 20010904//EN"
 "http://www.w3.org/TR/2001/REC-SVG-20010904/DTD/svg10.dtd">
<svg version="1.0" xmlns="http://www.w3.org/2000/svg"
 width="1280.000000pt" height="1225.000000pt" viewBox="0 0 1280.000000 1225.000000"
 preserveAspectRatio="xMidYMid meet">
<metadata>
Created by potrace 1.15, written by Peter Selinger 2001-2017
</metadata>
<g transform="translate(0.000000,1225.000000) scale(0.100000,-0.100000)"
fill="#FFFFFF" stroke="none">
<path d="M4040 12225 c-41 -13 -311 -94 -600 -180 -510 -152 -1492 -446 -2283
-682 l-387 -116 -10 -36 c-5 -20 -70 -297 -145 -616 -75 -319 -204 -868 -286
-1220 -83 -352 -190 -812 -240 -1021 -49 -210 -89 -390 -89 -401 0 -14 395
-366 1282 -1144 705 -618 1292 -1132 1304 -1142 22 -17 64 -5 1681 478 912
273 1672 500 1690 506 36 12 3 -116 268 1019 86 366 214 913 285 1215 71 303
157 669 191 814 l61 263 -38 38 c-22 21 -607 535 -1301 1144 -897 785 -1269
1106 -1285 1106 -13 -1 -57 -12 -98 -25z"/>
<path d="M10010 10910 c-85 -27 -389 -118 -675 -203 -286 -86 -830 -249 -1210
-362 -379 -113 -827 -247 -995 -297 -168 -50 -308 -94 -313 -97 -7 -7 -54
-206 -371 -1556 -80 -341 -204 -870 -275 -1177 -72 -306 -131 -560 -131 -566
0 -5 523 -468 1162 -1028 639 -561 1225 -1074 1301 -1141 77 -68 145 -123 151
-123 7 0 379 110 827 244 447 134 1203 359 1679 501 476 142 867 262 871 267
3 4 22 79 42 165 47 203 424 1811 707 3021 11 46 20 92 20 102 0 13 -209 202
-602 548 -332 290 -917 803 -1301 1140 -384 337 -705 612 -715 611 -9 -1 -87
-23 -172 -49z"/>
<path d="M4257 6096 c-922 -276 -1681 -507 -1686 -512 -5 -5 -54 -202 -109
-439 -174 -743 -388 -1658 -532 -2270 -108 -457 -136 -593 -127 -602 101 -99
2597 -2273 2610 -2273 9 0 191 52 405 116 213 63 693 207 1067 319 374 112
916 274 1205 360 289 86 564 168 611 183 l86 26 81 345 c110 466 630 2688 673
2870 19 82 20 96 7 105 -8 6 -594 520 -1303 1141 -708 622 -1293 1131 -1299
1132 -6 1 -766 -225 -1689 -501z"/>
</g>
</svg>
