<?xml version="1.0" standalone="no"?>
<!DOCTYPE svg PUBLIC "-//W3C//DTD SVG 20010904//EN" "http://www.w3.org/TR/2001/REC-SVG-20010904/DTD/svg10.dtd">
<svg version="1.0" xmlns="http://www.w3.org/2000/svg" width="1280.000000pt" height="1112.000000pt"
    viewBox="0 0 1280.000000 1112.000000" preserveAspectRatio="xMidYMid meet">
    <metadata>
        Created by potrace 1.15, written by Peter Selinger 2001-2017
    </metadata>
    <g transform="translate(0.000000,1112.000000) scale(0.100000,-0.100000)" fill="#FFFFFF" stroke="none">
        <path d="M3534 11110 c-24 -9 -3484 -3785 -3515 -3835 -24 -38 -24 -82 0 -121
23 -37 343 -370 381 -396 32 -23 98 -23 131 0 14 9 707 748 1539 1642 832 894
1518 1625 1524 1624 11 -1 3884 -2994 3933 -3040 14 -13 42 -27 62 -30 20 -4
1160 -5 2534 -1 2396 5 2500 6 2519 24 32 29 44 59 103 267 60 209 62 231 22
275 -12 12 -596 444 -1297 959 -701 515 -1567 1152 -1925 1415 -392 288 -664
481 -685 487 -19 5 -109 18 -200 30 -91 12 -257 35 -370 50 -460 65 -652 92
-1000 140 -201 27 -394 55 -430 60 -36 5 -227 32 -425 60 -198 27 -925 128
-1616 225 -691 96 -1258 175 -1260 174 -2 0 -14 -4 -25 -9z" />
        <path d="M3519 9197 c-20 -8 -52 -23 -71 -35 -20 -12 -568 -587 -1219 -1277
-1006 -1066 -1189 -1265 -1219 -1321 l-35 -67 -3 -2126 c-2 -1544 0 -2142 8
-2186 7 -33 22 -78 35 -101 28 -47 94 -110 133 -126 64 -25 1139 -424 1252
-465 107 -38 133 -43 181 -40 112 9 217 82 265 182 l24 50 0 530 c0 292 -5
1236 -11 2098 -6 863 -9 1570 -6 1573 2 3 332 2 732 -2 l727 -7 -8 -2321 c-5
-1277 -9 -2355 -8 -2396 1 -95 16 -148 57 -201 71 -93 46 -82 790 -338 81 -28
212 -73 292 -101 80 -27 210 -72 290 -100 356 -123 452 -156 810 -281 480
-168 433 -164 770 -57 223 71 605 191 1655 520 228 71 528 165 665 208 138 43
437 137 665 208 228 72 640 201 915 287 275 86 644 202 819 257 176 55 336
108 355 118 50 25 106 84 133 139 l23 46 3 1979 2 1978 -26 59 c-29 64 -78
115 -146 151 -43 23 -47 23 -368 21 -179 -1 -527 -6 -775 -12 -634 -16 -1917
-45 -2605 -61 -245 -5 -537 -12 -650 -16 l-205 -5 -1985 1595 c-1092 877
-2007 1607 -2034 1622 -60 33 -169 43 -227 21z m7072 -4709 c82 -28 149 -96
178 -178 9 -25 14 -197 18 -615 5 -575 5 -580 -16 -636 -12 -31 -38 -73 -58
-94 -39 -41 -124 -85 -162 -85 -13 0 -233 -52 -490 -115 -451 -112 -468 -115
-516 -104 -90 22 -157 78 -197 164 l-23 50 0 705 0 705 23 45 c32 60 73 102
130 131 45 23 58 24 297 29 493 11 780 11 816 -2z" />
    </g>
</svg>